<?xml version="1.0"?>
<svg xmlns="http://www.w3.org/2000/svg" xmlns:xlink="http://www.w3.org/1999/xlink" version="1.1" id="Layer_1" x="0px" y="0px" viewBox="0 0 512.002 512.002" style="enable-background:new 0 0 512.002 512.002;" xml:space="preserve" width="512px" height="512px" class=""><g><circle style="fill:#12C454" cx="256.001" cy="256" r="256" data-original="#FF314F" class="" data-old_color="#FF314F"/><path style="fill:#57E192" d="M509.703,290.335L385.294,165.926l-124.121,14.222l-47.12-0.431l-87.345,14.653l22.411,22.411v63.264  l-14.222,4.399l72.08,72.082l-16.196,7.425l-56.006,51.06l95.728,95.728c8.389,0.829,16.893,1.262,25.5,1.262  c31.578,0,61.814-5.732,89.741-16.188l0.26-0.26l0.117,0.117C432.748,463.079,497.027,384.884,509.703,290.335z" data-original="#A30F44" class="active-path" data-old_color="#58E293"/><path style="fill:#FFEDB5;" d="M373.282,317.159c-2.708-3.763-7.63-5.244-11.969-3.615c-0.062,0.024-0.124,0.047-0.188,0.067  l-73.463,24.457c0.016,0.59,0.003,1.184-0.034,1.783c-0.614,9.382-7.868,16.917-17.191,17.863l-44.273,4.598  c-2.801,0.293-5.304-1.743-5.596-4.542c-0.293-2.801,1.743-5.37,4.542-5.596l44.273-4.598c4.37-0.476,7.783-3.984,8.071-8.389  c0.157-2.405-0.633-4.727-2.222-6.537c-1.589-1.812-3.791-2.896-6.196-3.053l-58.782-3.832c-6.603-0.428-13.155,1.029-18.953,4.22  l-77.524,42.691l20.995,42.334l19.473-16.989c8.271-7.215,19.227-10.323,30.058-8.523l65.093,10.817  c11.928,1.586,23.886-1.389,33.68-8.376l88.626-61.037C375.664,327.442,376.367,321.448,373.282,317.159z" data-original="#FFEDB5"/><g>
	<path style="fill:#FEE187;" d="M269.384,347.577c4.37-0.476,7.783-3.984,8.071-8.389c0.157-2.405-0.633-4.727-2.222-6.537   c-1.589-1.812-3.791-2.896-6.196-3.053l-12.748-0.831v20.171L269.384,347.577z" data-original="#FEE187"/>
	<path style="fill:#FEE187;" d="M373.28,317.159c-2.707-3.763-7.63-5.244-11.969-3.615c-0.062,0.024-0.124,0.045-0.186,0.067   l-73.463,24.457c0.016,0.59,0.003,1.184-0.034,1.783c-0.614,9.382-7.868,16.917-17.191,17.863l-14.148,1.47v41.541   c9.569-0.124,18.884-3.146,26.788-8.785l88.626-61.037C375.664,327.442,376.367,321.448,373.28,317.159z" data-original="#FEE187"/>
</g><rect x="175.839" y="170.667" style="fill:#386895;" width="170.667" height="113.778" data-original="#386895" class=""/><g>
	<rect x="255.863" y="170.667" style="fill:#273B7A;" width="90.648" height="113.778" data-original="#273B7A" class=""/>
	<rect x="126.708" y="165.926" style="fill:#273B7A;" width="258.586" height="28.444" data-original="#273B7A" class=""/>
</g><g>
	<rect x="255.863" y="165.926" style="fill:#121149;" width="129.431" height="28.444" data-original="#121149" class=""/>
	<rect x="144.809" y="177.562" style="fill:#121149;" width="8.62" height="99.987" data-original="#121149" class=""/>
</g><polygon style="fill:#273B7A;" points="163.341,284.444 134.896,284.444 145.671,256 152.567,256 " data-original="#273B7A" class=""/></g> </svg>
